<svg width="30" height="30" viewBox="0 0 30 30" fill="none" xmlns="http://www.w3.org/2000/svg">
<g id="ep:close-bold">
<path id="Vector" d="M5.7189 5.7189C6.07051 5.36739 6.54734 5.16992 7.04452 5.16992C7.5417 5.16992 8.01853 5.36739 8.37015 5.7189L15.0001 12.3489L21.6301 5.7189C21.9838 5.37735 22.4574 5.18836 22.949 5.19263C23.4406 5.1969 23.9109 5.3941 24.2586 5.74174C24.6062 6.08938 24.8034 6.55965 24.8077 7.05127C24.8119 7.54289 24.6229 8.01652 24.2814 8.37015L17.6514 15.0001L24.2814 21.6301C24.6229 21.9838 24.8119 22.4574 24.8077 22.949C24.8034 23.4406 24.6062 23.9109 24.2586 24.2586C23.9109 24.6062 23.4406 24.8034 22.949 24.8077C22.4574 24.8119 21.9838 24.6229 21.6301 24.2814L15.0001 17.6514L8.37015 24.2814C8.01652 24.6229 7.54289 24.8119 7.05127 24.8077C6.55965 24.8034 6.08938 24.6062 5.74174 24.2586C5.3941 23.9109 5.1969 23.4406 5.19263 22.949C5.18836 22.4574 5.37735 21.9838 5.7189 21.6301L12.3489 15.0001L5.7189 8.37015C5.36739 8.01853 5.16992 7.5417 5.16992 7.04452C5.16992 6.54734 5.36739 6.07051 5.7189 5.7189Z" fill="white"/>
</g>
</svg>
