<svg width="90" height="16" viewBox="0 0 90 16" fill="none" xmlns="http://www.w3.org/2000/svg">
<g id="Coinbase-logo-1 1" clip-path="url(#clip0_662_3810)">
<g id="Group">
<g id="Clip path group">
<mask id="mask0_662_3810" style="mask-type:luminance" maskUnits="userSpaceOnUse" x="0" y="0" width="90" height="16">
<g id="SVGID_00000062186582070498988380000008589056061310051469_">
<path id="Vector" d="M89.659 0H0.160156V16H89.659V0Z" fill="white"/>
</g>
</mask>
<g mask="url(#mask0_662_3810)">
<g id="Group_2">
<path id="Vector_2" d="M18.2234 4.47689C14.9533 4.47689 12.4229 6.92944 12.4229 10.2384C12.4229 13.5474 14.9144 16 18.2234 16C21.5324 16 24.0628 13.5085 24.0628 10.2384C24.0628 6.96837 21.5714 4.47689 18.2234 4.47689ZM18.2624 13.5864C16.3937 13.5864 15.0701 12.146 15.0701 10.1995C15.0701 8.25304 16.3937 6.81265 18.2624 6.81265C20.131 6.81265 21.4935 8.25304 21.4935 10.1995C21.4935 12.146 20.092 13.5864 18.2624 13.5864ZM24.7636 6.96837H26.3597V15.7664H28.9679V4.67153H24.7636V6.96837ZM5.92171 6.85158C7.28425 6.85158 8.37427 7.6691 8.76356 8.91484H11.4886C10.9825 6.26764 8.80249 4.43796 5.92171 4.43796C2.69057 4.47689 0.160156 6.92944 0.160156 10.2384C0.160156 13.5474 2.65164 16 5.96064 16C8.76356 16 10.9825 14.2092 11.4886 11.5231H8.76356C8.37427 12.7689 7.28425 13.6253 5.96064 13.6253C4.09203 13.6253 2.76843 12.1849 2.76843 10.2384C2.76843 8.29197 4.0531 6.85158 5.92171 6.85158ZM73.8536 9.14842L71.9461 8.87591C71.0507 8.75912 70.3889 8.44769 70.3889 7.74696C70.3889 6.96837 71.2453 6.57908 72.3743 6.57908C73.62 6.57908 74.4375 7.12409 74.5933 7.98054H77.0847C76.8122 5.76156 75.0993 4.43796 72.4521 4.43796C69.7271 4.43796 67.8974 5.83942 67.8974 7.82482C67.8974 9.69343 69.0653 10.8224 71.4789 11.1338L73.3865 11.4063C74.3208 11.5231 74.8268 11.9124 74.8268 12.5742C74.8268 13.4696 73.9315 13.82 72.6857 13.82C71.1675 13.82 70.311 13.1971 70.1553 12.2628H67.6249C67.8585 14.4428 69.5714 15.9611 72.6468 15.9611C75.4497 15.9611 77.3573 14.6764 77.3573 12.4574C77.3573 10.5109 75.9947 9.49878 73.8536 9.14842ZM27.6833 0.116788C26.749 0.116788 26.0093 0.817518 26.0093 1.75182C26.0093 2.68613 26.71 3.38686 27.6833 3.38686C28.6176 3.38686 29.3572 2.68613 29.3572 1.75182C29.3572 0.817518 28.6176 0.116788 27.6833 0.116788ZM65.6006 8.48662C65.6006 6.07299 64.1212 4.47689 61.0458 4.47689C58.1261 4.47689 56.4911 5.9562 56.1407 8.21411H58.71C58.8268 7.31874 59.5276 6.61801 61.0069 6.61801C62.3305 6.61801 62.9534 7.20195 62.9534 7.90268C62.9534 8.83698 61.7855 9.07056 60.3062 9.22628C58.3208 9.45986 55.8682 10.1217 55.8682 12.691C55.8682 14.6764 57.3475 15.9611 59.7222 15.9611C61.5908 15.9611 62.7198 15.1825 63.3037 13.9757C63.3816 15.0657 64.1991 15.7664 65.367 15.7664H66.8852V13.4696H65.6006V8.48662ZM63.0312 11.2506C63.0312 12.7299 61.7465 13.82 60.1504 13.82C59.1772 13.82 58.3597 13.4307 58.3597 12.5353C58.3597 11.4453 59.6833 11.1338 60.8901 11.017C62.058 10.9002 62.6808 10.6667 63.0312 10.1606V11.2506ZM49.328 4.47689C47.8877 4.47689 46.6808 5.06083 45.8244 6.07299V0H43.2551V15.7664H45.7855V14.326C46.6419 15.3771 47.8877 16 49.328 16C52.4424 16 54.7782 13.5474 54.7782 10.2384C54.7782 6.92944 52.4035 4.47689 49.328 4.47689ZM48.9388 13.5864C47.0701 13.5864 45.7465 12.146 45.7465 10.1995C45.7465 8.25304 47.1091 6.81265 48.9777 6.81265C50.8463 6.81265 52.1699 8.25304 52.1699 10.1995C52.1699 12.1849 50.8074 13.5864 48.9388 13.5864ZM37.0653 4.47689C35.3913 4.47689 34.3013 5.17762 33.6395 6.11192V4.67153H31.0701V15.7664H33.6395V9.73236C33.6395 8.01946 34.7295 6.85158 36.3256 6.85158C37.8049 6.85158 38.7392 7.90268 38.7392 9.42093V15.7664H41.3086V9.22628C41.3086 6.42336 39.8682 4.47689 37.0653 4.47689ZM89.659 9.88808C89.659 6.69586 87.3232 4.47689 84.2088 4.47689C80.8998 4.47689 78.4473 6.96837 78.4473 10.2384C78.4473 13.7032 81.0555 16 84.2478 16C86.9339 16 89.0361 14.4039 89.5811 12.146H86.895C86.5057 13.1192 85.5714 13.7032 84.2867 13.7032C82.6127 13.7032 81.367 12.691 81.0945 10.8613H89.659V9.88808ZM81.2502 9.03163C81.6784 7.47445 82.8074 6.73479 84.1699 6.73479C85.6492 6.73479 86.7393 7.55231 87.0118 9.03163H81.2502Z" fill="white" fill-opacity="0.4"/>
</g>
</g>
</g>
</g>
</g>
<defs>
<clipPath id="clip0_662_3810">
<rect width="89.4988" height="16" fill="white" transform="translate(0.160156)"/>
</clipPath>
</defs>
</svg>
