<svg width="90" height="16" viewBox="0 0 90 16" fill="none" xmlns="http://www.w3.org/2000/svg">
<g id="Coinbase-logo-1 1" clip-path="url(#clip0_662_3798)">
<g id="Group">
<g id="Clip path group">
<mask id="mask0_662_3798" style="mask-type:luminance" maskUnits="userSpaceOnUse" x="0" y="0" width="91" height="16">
<g id="SVGID_00000062186582070498988380000008589056061310051469_">
<path id="Vector" d="M90.0007 0H0.501953V16H90.0007V0Z" fill="white"/>
</g>
</mask>
<g mask="url(#mask0_662_3798)">
<g id="Group_2">
<path id="Vector_2" d="M18.5652 4.47689C15.2951 4.47689 12.7647 6.92944 12.7647 10.2384C12.7647 13.5474 15.2562 16 18.5652 16C21.8742 16 24.4046 13.5085 24.4046 10.2384C24.4046 6.96837 21.9132 4.47689 18.5652 4.47689ZM18.6041 13.5864C16.7355 13.5864 15.4119 12.146 15.4119 10.1995C15.4119 8.25304 16.7355 6.81265 18.6041 6.81265C20.4728 6.81265 21.8353 8.25304 21.8353 10.1995C21.8353 12.146 20.4338 13.5864 18.6041 13.5864ZM25.1054 6.96837H26.7015V15.7664H29.3097V4.67153H25.1054V6.96837ZM6.26351 6.85158C7.62604 6.85158 8.71607 7.6691 9.10536 8.91484H11.8304C11.3243 6.26764 9.14429 4.43796 6.26351 4.43796C3.03237 4.47689 0.501953 6.92944 0.501953 10.2384C0.501953 13.5474 2.99344 16 6.30244 16C9.10536 16 11.3243 14.2092 11.8304 11.5231H9.10536C8.71607 12.7689 7.62604 13.6253 6.30244 13.6253C4.43383 13.6253 3.11023 12.1849 3.11023 10.2384C3.11023 8.29197 4.3949 6.85158 6.26351 6.85158ZM74.1954 9.14842L72.2878 8.87591C71.3925 8.75912 70.7307 8.44769 70.7307 7.74696C70.7307 6.96837 71.5871 6.57908 72.7161 6.57908C73.9618 6.57908 74.7793 7.12409 74.9351 7.98054H77.4265C77.154 5.76156 75.4411 4.43796 72.7939 4.43796C70.0689 4.43796 68.2392 5.83942 68.2392 7.82482C68.2392 9.69343 69.4071 10.8224 71.8207 11.1338L73.7282 11.4063C74.6626 11.5231 75.1686 11.9124 75.1686 12.5742C75.1686 13.4696 74.2733 13.82 73.0275 13.82C71.5093 13.82 70.6528 13.1971 70.4971 12.2628H67.9667C68.2003 14.4428 69.9132 15.9611 72.9886 15.9611C75.7915 15.9611 77.6991 14.6764 77.6991 12.4574C77.6991 10.5109 76.3365 9.49878 74.1954 9.14842ZM28.0251 0.116788C27.0908 0.116788 26.3511 0.817518 26.3511 1.75182C26.3511 2.68613 27.0518 3.38686 28.0251 3.38686C28.9594 3.38686 29.699 2.68613 29.699 1.75182C29.699 0.817518 28.9594 0.116788 28.0251 0.116788ZM65.9424 8.48662C65.9424 6.07299 64.463 4.47689 61.3876 4.47689C58.4679 4.47689 56.8329 5.9562 56.4825 8.21411H59.0518C59.1686 7.31874 59.8694 6.61801 61.3487 6.61801C62.6723 6.61801 63.2952 7.20195 63.2952 7.90268C63.2952 8.83698 62.1273 9.07056 60.6479 9.22628C58.6625 9.45986 56.21 10.1217 56.21 12.691C56.21 14.6764 57.6893 15.9611 60.064 15.9611C61.9326 15.9611 63.0616 15.1825 63.6455 13.9757C63.7234 15.0657 64.5409 15.7664 65.7088 15.7664H67.227V13.4696H65.9424V8.48662ZM63.373 11.2506C63.373 12.7299 62.0883 13.82 60.4922 13.82C59.519 13.82 58.7015 13.4307 58.7015 12.5353C58.7015 11.4453 60.0251 11.1338 61.2319 11.017C62.3998 10.9002 63.0226 10.6667 63.373 10.1606V11.2506ZM49.6698 4.47689C48.2295 4.47689 47.0226 5.06083 46.1662 6.07299V0H43.5969V15.7664H46.1273V14.326C46.9837 15.3771 48.2295 16 49.6698 16C52.7842 16 55.12 13.5474 55.12 10.2384C55.12 6.92944 52.7453 4.47689 49.6698 4.47689ZM49.2806 13.5864C47.4119 13.5864 46.0883 12.146 46.0883 10.1995C46.0883 8.25304 47.4509 6.81265 49.3195 6.81265C51.1881 6.81265 52.5117 8.25304 52.5117 10.1995C52.5117 12.1849 51.1492 13.5864 49.2806 13.5864ZM37.4071 4.47689C35.7331 4.47689 34.6431 5.17762 33.9813 6.11192V4.67153H31.4119V15.7664H33.9813V9.73236C33.9813 8.01946 35.0713 6.85158 36.6674 6.85158C38.1467 6.85158 39.081 7.90268 39.081 9.42093V15.7664H41.6504V9.22628C41.6504 6.42336 40.21 4.47689 37.4071 4.47689ZM90.0007 9.88808C90.0007 6.69586 87.665 4.47689 84.5506 4.47689C81.2416 4.47689 78.7891 6.96837 78.7891 10.2384C78.7891 13.7032 81.3973 16 84.5896 16C87.2757 16 89.3779 14.4039 89.9229 12.146H87.2368C86.8475 13.1192 85.9132 13.7032 84.6285 13.7032C82.9545 13.7032 81.7088 12.691 81.4363 10.8613H90.0007V9.88808ZM81.592 9.03163C82.0202 7.47445 83.1492 6.73479 84.5117 6.73479C85.991 6.73479 87.081 7.55231 87.3536 9.03163H81.592Z" fill="white" fill-opacity="0.4"/>
</g>
</g>
</g>
</g>
</g>
<defs>
<clipPath id="clip0_662_3798">
<rect width="89.4988" height="16" fill="white" transform="translate(0.501953)"/>
</clipPath>
</defs>
</svg>
