<svg width="32" height="32" viewBox="0 0 32 32" fill="none" xmlns="http://www.w3.org/2000/svg">
<g id="fi_11940173">
<g id="Layer 2">
<path id="Vector" d="M26 26.6668H22.6666C22.313 26.6668 21.9739 26.5264 21.7238 26.2763C21.4738 26.0263 21.3333 25.6871 21.3333 25.3335C21.3333 24.9799 21.4738 24.6407 21.7238 24.3907C21.9739 24.1406 22.313 24.0002 22.6666 24.0002H26C26.1761 23.9979 26.3444 23.927 26.4689 23.8025C26.5935 23.6779 26.6644 23.5096 26.6666 23.3335V4.66683C26.6644 4.49071 26.5935 4.32242 26.4689 4.19787C26.3444 4.07333 26.1761 4.00238 26 4.00016H9.99996C9.82384 4.00238 9.65555 4.07333 9.531 4.19787C9.40646 4.32242 9.33551 4.49071 9.33329 4.66683V8.00016C9.33329 8.35379 9.19282 8.69292 8.94277 8.94297C8.69272 9.19302 8.35358 9.3335 7.99996 9.3335C7.64634 9.3335 7.3072 9.19302 7.05715 8.94297C6.8071 8.69292 6.66663 8.35379 6.66663 8.00016V4.66683C6.66755 3.78306 7.01904 2.93575 7.64396 2.31083C8.26888 1.68591 9.11619 1.33442 9.99996 1.3335H26C26.8837 1.33442 27.731 1.68591 28.356 2.31083C28.9809 2.93575 29.3324 3.78306 29.3333 4.66683V23.3335C29.3324 24.2173 28.9809 25.0646 28.356 25.6895C27.731 26.3144 26.8837 26.6659 26 26.6668Z" fill="#65ADD9"/>
<path id="Vector_2" d="M20.6666 30.667H5.99996C5.11619 30.6661 4.26888 30.3146 3.64396 29.6897C3.01904 29.0647 2.66755 28.2174 2.66663 27.3337V10.0003C2.66755 9.11656 3.01904 8.26925 3.64396 7.64433C4.26888 7.01941 5.11619 6.66792 5.99996 6.66699H20.6666C21.5504 6.66792 22.3977 7.01941 23.0226 7.64433C23.6475 8.26925 23.999 9.11656 24 10.0003V27.3337C23.999 28.2174 23.6475 29.0647 23.0226 29.6897C22.3977 30.3146 21.5504 30.6661 20.6666 30.667ZM5.99996 9.33366C5.82322 9.33389 5.65378 9.4042 5.52881 9.52917C5.40383 9.65415 5.33352 9.82359 5.33329 10.0003V27.3337C5.33352 27.5104 5.40383 27.6798 5.52881 27.8048C5.65378 27.9298 5.82322 28.0001 5.99996 28.0003H20.6666C20.8434 28.0001 21.0128 27.9298 21.1378 27.8048C21.2628 27.6798 21.3331 27.5104 21.3333 27.3337V10.0003C21.3331 9.82359 21.2628 9.65415 21.1378 9.52917C21.0128 9.4042 20.8434 9.33389 20.6666 9.33366H5.99996Z" fill="#65ADD9"/>
</g>
</g>
</svg>
