<svg width="32" height="32" viewBox="0 0 32 32" fill="none" xmlns="http://www.w3.org/2000/svg">
<g id="fi_11940173">
<g id="Layer 2">
<path id="Vector" d="M26 26.6668H22.6667C22.3131 26.6668 21.9739 26.5264 21.7239 26.2763C21.4738 26.0263 21.3334 25.6871 21.3334 25.3335C21.3334 24.9799 21.4738 24.6407 21.7239 24.3907C21.9739 24.1406 22.3131 24.0002 22.6667 24.0002H26C26.1761 23.9979 26.3444 23.927 26.469 23.8025C26.5935 23.6779 26.6645 23.5096 26.6667 23.3335V4.66683C26.6645 4.49071 26.5935 4.32242 26.469 4.19787C26.3444 4.07333 26.1761 4.00238 26 4.00016H10C9.8239 4.00238 9.65561 4.07333 9.53107 4.19787C9.40652 4.32242 9.33557 4.49071 9.33335 4.66683V8.00016C9.33335 8.35379 9.19288 8.69292 8.94283 8.94297C8.69278 9.19302 8.35364 9.3335 8.00002 9.3335C7.6464 9.3335 7.30726 9.19302 7.05721 8.94297C6.80716 8.69292 6.66669 8.35379 6.66669 8.00016V4.66683C6.66762 3.78306 7.0191 2.93575 7.64402 2.31083C8.26894 1.68591 9.11625 1.33442 10 1.3335H26C26.8838 1.33442 27.7311 1.68591 28.356 2.31083C28.9809 2.93575 29.3324 3.78306 29.3334 4.66683V23.3335C29.3324 24.2173 28.9809 25.0646 28.356 25.6895C27.7311 26.3144 26.8838 26.6659 26 26.6668Z" fill="black"/>
<path id="Vector_2" d="M20.6667 30.667H6.00002C5.11625 30.6661 4.26894 30.3146 3.64402 29.6897C3.0191 29.0647 2.66762 28.2174 2.66669 27.3337V10.0003C2.66762 9.11656 3.0191 8.26925 3.64402 7.64433C4.26894 7.01941 5.11625 6.66792 6.00002 6.66699H20.6667C21.5505 6.66792 22.3978 7.01941 23.0227 7.64433C23.6476 8.26925 23.9991 9.11656 24 10.0003V27.3337C23.9991 28.2174 23.6476 29.0647 23.0227 29.6897C22.3978 30.3146 21.5505 30.6661 20.6667 30.667ZM6.00002 9.33366C5.82328 9.33389 5.65384 9.4042 5.52887 9.52917C5.40389 9.65415 5.33358 9.82359 5.33335 10.0003V27.3337C5.33358 27.5104 5.40389 27.6798 5.52887 27.8048C5.65384 27.9298 5.82328 28.0001 6.00002 28.0003H20.6667C20.8434 28.0001 21.0129 27.9298 21.1378 27.8048C21.2628 27.6798 21.3331 27.5104 21.3334 27.3337V10.0003C21.3331 9.82359 21.2628 9.65415 21.1378 9.52917C21.0129 9.4042 20.8434 9.33389 20.6667 9.33366H6.00002Z" fill="black"/>
</g>
</g>
</svg>
