<svg width="32" height="32" viewBox="0 0 32 32" fill="none" xmlns="http://www.w3.org/2000/svg">
<g id="fi_5968756">
<rect width="32" height="32" rx="8" fill="#5865F2"/>
<g id="Group">
<path id="Vector" d="M24.3171 8.49212C22.7874 7.80151 21.1471 7.29268 19.432 7.00122C19.4007 6.9956 19.3695 7.00966 19.3534 7.03775C19.1425 7.40697 18.9088 7.88859 18.7451 8.26717C16.9005 7.99541 15.0652 7.99541 13.2584 8.26717C13.0947 7.8802 12.8525 7.40697 12.6406 7.03775C12.6245 7.01059 12.5933 6.99652 12.5621 7.00122C10.848 7.29171 9.20762 7.80054 7.67696 8.49212C7.6637 8.49774 7.65235 8.50711 7.64481 8.51928C4.53343 13.0931 3.68105 17.5545 4.09918 21.9606C4.10105 21.9821 4.11338 22.0028 4.13039 22.0159C6.18319 23.4993 8.17173 24.3998 10.1233 24.9967C10.1545 25.0061 10.1876 24.9949 10.2075 24.9696C10.6691 24.3492 11.0806 23.6952 11.4334 23.0073C11.4542 22.9671 11.4344 22.9192 11.3918 22.9033C10.7391 22.6597 10.1176 22.3626 9.51967 22.0253C9.47237 21.9981 9.46857 21.9316 9.51212 21.8997C9.63793 21.807 9.76379 21.7104 9.88393 21.613C9.90568 21.5952 9.93596 21.5914 9.96151 21.6026C13.8893 23.3672 18.1415 23.3672 22.0229 21.6026C22.0485 21.5905 22.0788 21.5942 22.1014 21.612C22.2216 21.7095 22.3474 21.8069 22.4742 21.8997C22.5177 21.9315 22.5148 21.9981 22.4676 22.0253C21.8697 22.3692 21.2482 22.6597 20.5945 22.9024C20.5519 22.9183 20.533 22.967 20.5539 23.0073C20.9143 23.6942 21.3258 24.3482 21.7789 24.9686C21.7978 24.9948 21.8319 25.0061 21.8631 24.9967C23.8241 24.3998 25.8126 23.4992 27.8654 22.0159C27.8834 22.0028 27.8948 21.9831 27.8967 21.9615C28.3971 16.8676 27.0585 12.4428 24.3482 8.5202C24.3417 8.50711 24.3303 8.49774 24.3171 8.49212ZM12.0201 19.2777C10.8376 19.2777 9.86317 18.2095 9.86317 16.8976C9.86317 15.5857 10.8186 14.5174 12.0201 14.5174C13.2309 14.5174 14.1959 15.5951 14.1769 16.8976C14.1769 18.2095 13.2214 19.2777 12.0201 19.2777ZM19.9948 19.2777C18.8123 19.2777 17.8379 18.2095 17.8379 16.8976C17.8379 15.5857 18.7934 14.5174 19.9948 14.5174C21.2057 14.5174 22.1706 15.5951 22.1517 16.8976C22.1517 18.2095 21.2057 19.2777 19.9948 19.2777Z" fill="white"/>
</g>
</g>
</svg>
