<svg width="32" height="32" viewBox="0 0 32 32" fill="none" xmlns="http://www.w3.org/2000/svg">
<g id="ep:close-bold">
<path id="Vector" d="M6.1001 6.10016C6.47515 5.72522 6.98377 5.51459 7.5141 5.51459C8.04443 5.51459 8.55304 5.72522 8.9281 6.10016L16.0001 13.1722L23.0721 6.10016C23.4493 5.73584 23.9545 5.53426 24.4789 5.53881C25.0033 5.54337 25.5049 5.75371 25.8757 6.12452C26.2465 6.49534 26.4569 6.99696 26.4614 7.52136C26.466 8.04575 26.2644 8.55096 25.9001 8.92816L18.8281 16.0002L25.9001 23.0722C26.2644 23.4494 26.466 23.9546 26.4614 24.479C26.4569 25.0034 26.2465 25.505 25.8757 25.8758C25.5049 26.2466 25.0033 26.4569 24.4789 26.4615C23.9545 26.4661 23.4493 26.2645 23.0721 25.9002L16.0001 18.8282L8.9281 25.9002C8.55089 26.2645 8.04569 26.4661 7.5213 26.4615C6.9969 26.4569 6.49528 26.2466 6.12446 25.8758C5.75365 25.505 5.54331 25.0034 5.53875 24.479C5.53419 23.9546 5.73578 23.4494 6.1001 23.0722L13.1721 16.0002L6.1001 8.92816C5.72516 8.5531 5.51453 8.04449 5.51453 7.51416C5.51453 6.98383 5.72516 6.47522 6.1001 6.10016Z" fill="black"/>
</g>
</svg>
