<svg width="323" height="485" viewBox="0 0 323 485" fill="none" xmlns="http://www.w3.org/2000/svg">
<g opacity="0.6">
<path d="M154.783 393.923H102.428C102.289 386.395 102.223 381.808 102.223 380.165C102.223 363.196 105.025 349.235 110.64 338.282C116.25 327.333 127.475 315.014 144.311 301.326C161.147 287.64 171.208 278.674 174.493 274.43C179.555 267.725 182.089 260.334 182.089 252.256C182.089 241.035 177.605 231.417 168.64 223.409C159.674 215.403 147.596 211.4 132.403 211.4C117.756 211.4 105.508 215.576 95.6519 223.923C85.7976 232.274 79.0218 245.003 75.3274 262.112L22.3564 255.541C23.8605 231.042 34.2958 210.238 53.6655 193.127C73.0336 176.018 98.4564 167.462 129.939 167.462C163.063 167.462 189.409 176.121 208.986 193.434C228.557 210.751 238.345 230.903 238.345 253.899C238.345 266.628 234.753 278.674 227.566 290.034C220.379 301.396 205.014 316.863 181.473 336.434C169.29 346.566 161.727 354.707 158.786 360.867C155.841 367.025 154.507 378.045 154.783 393.923Z" fill="#65ADD9"/>
<path d="M154.228 418.197H103.155V469.271H154.228V418.197Z" fill="#65ADD9"/>
<path d="M158.497 484.1H88.3256V408.751H87.8171L87.3934 380.19C87.395 365.78 89.2755 352.971 92.9825 342.095L96.0926 343.154C92.5029 353.688 90.6816 366.141 90.68 380.166L91.0554 405.465H91.6124V480.813H158.498L158.497 484.1ZM169.055 425.641H165.768V405.465H166.525L166.322 393.723C166.299 392.442 166.288 391.211 166.288 390.029C166.288 374.275 168.112 368.111 169.2 365.839C169.847 364.488 170.97 362.837 172.54 360.929L175.078 363.018C173.332 365.138 172.532 366.494 172.166 367.258C171.557 368.527 169.574 373.92 169.574 390.029C169.574 391.192 169.585 392.404 169.608 393.665L169.87 408.751H169.054L169.055 425.641ZM136.023 293.193L133.934 290.654L134.958 289.82C157.159 271.773 161.856 266.53 162.768 265.352C165.788 261.352 167.261 257.062 167.261 252.256C167.261 248.92 166.659 245.953 165.419 243.183C165.202 242.698 164.963 242.214 164.698 241.727L167.584 240.155C167.89 240.718 168.168 241.28 168.42 241.84C169.851 245.041 170.548 248.448 170.548 252.256C170.548 257.804 168.858 262.74 165.379 267.349C162.752 270.744 152.422 279.858 137.029 292.371L136.023 293.193ZM59.1259 275.045L6.70117 268.542L7.55644 254.633C7.59818 253.938 7.64784 253.245 7.70267 252.551L10.9794 252.814C10.9249 253.485 10.8785 254.159 10.8365 254.833L10.1705 265.66L59.5305 271.784L59.1259 275.045ZM249.686 247.858C249.007 237.706 246.568 227.909 242.436 218.742C237.949 208.774 231.362 199.337 222.857 190.688L225.2 188.384C233.979 197.311 240.787 207.07 245.434 217.392C249.727 226.918 252.261 237.095 252.967 247.64L249.686 247.858ZM35.9841 194.452L33.529 192.267C36.6726 188.736 40.1453 185.288 43.8473 182.016C65.9173 162.52 94.8827 152.635 129.94 152.635C143.398 152.635 156.085 153.989 167.647 156.661L166.906 159.864C155.588 157.248 143.15 155.921 129.94 155.921C95.7076 155.921 67.474 165.529 46.0233 184.477C42.4192 187.663 39.0409 191.02 35.9841 194.452Z" fill="#65ADD9"/>
<path d="M257.057 383.872H225.069C224.984 379.273 224.943 376.47 224.943 375.466C224.943 365.099 226.656 356.569 230.086 349.877C233.514 343.187 240.372 335.661 250.658 327.297C260.945 318.935 267.092 313.457 269.099 310.864C272.192 306.767 273.74 302.252 273.74 297.316C273.74 290.46 271 284.584 265.523 279.691C260.045 274.8 252.666 272.354 243.383 272.354C234.434 272.354 226.95 274.906 220.929 280.006C214.908 285.108 210.768 292.885 208.511 303.338L176.146 299.324C177.065 284.355 183.441 271.644 195.276 261.19C207.109 250.736 222.642 245.509 241.878 245.509C262.116 245.509 278.213 250.799 290.174 261.377C302.132 271.957 308.112 284.27 308.112 298.32C308.112 306.097 305.917 313.457 301.526 320.398C297.135 327.34 287.747 336.79 273.364 348.748C265.92 354.938 261.3 359.912 259.502 363.676C257.704 367.438 256.889 374.171 257.057 383.872Z" fill="#E2EDF3"/>
<path d="M256.718 398.703H225.514V429.909H256.718V398.703Z" fill="#E2EDF3"/>
<path d="M259.326 438.968H216.452V392.932H216.141L215.882 375.482C215.883 366.677 217.033 358.851 219.297 352.207L221.198 352.854C219.004 359.289 217.891 366.898 217.891 375.467L218.12 390.924H218.46V436.96H259.326V438.968ZM265.776 403.251H263.768V390.924H264.231L264.106 383.749C264.092 382.967 264.086 382.215 264.086 381.492C264.086 371.867 265.201 368.101 265.865 366.713C266.26 365.888 266.947 364.879 267.906 363.713L269.457 364.989C268.39 366.285 267.901 367.113 267.677 367.58C267.306 368.355 266.094 371.65 266.094 381.492C266.094 382.203 266.101 382.943 266.114 383.714L266.274 392.931H265.776L265.776 403.251ZM245.594 322.328L244.318 320.777L244.943 320.267C258.508 309.241 261.378 306.037 261.934 305.318C263.78 302.873 264.68 300.253 264.68 297.316C264.68 295.278 264.312 293.465 263.554 291.773C263.422 291.477 263.276 291.18 263.114 290.884L264.877 289.923C265.064 290.267 265.234 290.61 265.388 290.952C266.262 292.908 266.688 294.99 266.688 297.316C266.688 300.706 265.655 303.722 263.53 306.537C261.925 308.612 255.614 314.18 246.209 321.826L245.594 322.328ZM198.612 311.24L166.581 307.267L167.104 298.768C167.129 298.344 167.16 297.92 167.193 297.496L169.195 297.657C169.162 298.067 169.133 298.479 169.108 298.891L168.701 305.506L198.858 309.247L198.612 311.24ZM315.04 294.629C314.625 288.426 313.135 282.441 310.611 276.839C307.869 270.749 303.844 264.983 298.648 259.699L300.079 258.291C305.443 263.745 309.603 269.708 312.442 276.014C315.065 281.835 316.613 288.053 317.044 294.495L315.04 294.629ZM184.472 261.999L182.972 260.664C184.893 258.507 187.015 256.399 189.277 254.401C202.761 242.489 220.458 236.449 241.877 236.449C250.1 236.449 257.852 237.277 264.916 238.909L264.463 240.866C257.548 239.268 249.948 238.457 241.877 238.457C220.962 238.457 203.712 244.327 190.606 255.904C188.404 257.851 186.34 259.902 184.472 261.999Z" fill="#E2EDF3"/>
<path d="M237.148 125.228C237.148 130.575 232.813 134.91 227.465 134.91C222.117 134.91 217.782 130.575 217.782 125.228C217.782 119.88 222.118 115.545 227.465 115.545C232.813 115.545 237.148 119.88 237.148 125.228Z" fill="#65ADD9"/>
<path d="M99.9771 2.25943C99.9771 3.507 98.9657 4.5186 97.7179 4.5186C96.4703 4.5186 95.4587 3.507 95.4587 2.25943C95.4587 1.01159 96.4703 0 97.7179 0C98.9655 0 99.9771 1.01159 99.9771 2.25943Z" fill="#65ADD9"/>
<path d="M300.407 35.8253C300.407 37.6079 298.962 39.053 297.18 39.053C295.398 39.053 293.952 37.6079 293.952 35.8253C293.952 34.0428 295.398 32.5977 297.18 32.5977C298.962 32.5977 300.407 34.0428 300.407 35.8253Z" fill="#65ADD9"/>
<path d="M113.855 259.817C113.855 260.886 112.988 261.753 111.919 261.753C110.849 261.753 109.982 260.886 109.982 259.817C109.982 258.747 110.849 257.88 111.919 257.88C112.988 257.88 113.855 258.747 113.855 259.817Z" fill="#65ADD9"/>
<path d="M196.48 427.003C196.48 428.785 195.035 430.23 193.253 430.23C191.47 430.23 190.025 428.785 190.025 427.003C190.025 425.22 191.47 423.775 193.253 423.775C195.035 423.775 196.48 425.22 196.48 427.003Z" fill="#65ADD9"/>
<path d="M323 346.96C323 348.386 321.844 349.542 320.418 349.542C318.992 349.542 317.836 348.386 317.836 346.96C317.836 345.534 318.992 344.378 320.418 344.378C321.844 344.378 323 345.534 323 346.96Z" fill="#65ADD9"/>
<path d="M312.026 130.716C312.026 133.568 309.714 135.88 306.862 135.88C304.01 135.88 301.698 133.568 301.698 130.716C301.698 127.864 304.01 125.552 306.862 125.552C309.714 125.552 312.026 127.864 312.026 130.716Z" fill="#65ADD9"/>
<path d="M8.4988 316.339C9.06929 314.277 7.86048 312.143 5.79884 311.573C3.73721 311.002 1.60345 312.211 1.03296 314.273C0.462474 316.335 1.67129 318.468 3.73292 319.039C5.79455 319.609 7.92831 318.4 8.4988 316.339Z" fill="#E2EDF3"/>
<path d="M55.7595 139.429C55.7595 143.885 52.1472 147.498 47.6908 147.498C43.2344 147.498 39.6221 143.885 39.6221 139.429C39.6221 134.973 43.2344 131.36 47.6908 131.36C52.1472 131.36 55.7595 134.973 55.7595 139.429Z" fill="#E2EDF3"/>
<path d="M194.544 16.7829C194.544 20.1696 191.799 22.9152 188.412 22.9152C185.025 22.9152 182.28 20.1696 182.28 16.7829C182.28 13.396 185.025 10.6504 188.412 10.6504C191.799 10.6507 194.544 13.3963 194.544 16.7829Z" fill="#E2EDF3"/>
<path d="M138.385 101.667C141.237 101.667 143.549 99.355 143.549 96.5029C143.549 93.6509 141.237 91.3389 138.385 91.3389C135.533 91.3389 133.221 93.6509 133.221 96.5029C133.221 99.355 135.533 101.667 138.385 101.667Z" fill="#E2EDF3"/>
<path d="M288.143 202.689C288.143 206.076 285.397 208.821 282.01 208.821C278.624 208.821 275.878 206.076 275.878 202.689C275.878 199.302 278.624 196.557 282.01 196.557C285.397 196.557 288.143 199.302 288.143 202.689Z" fill="#E2EDF3"/>
<path d="M66.7326 430.23C66.7326 433.796 63.8424 436.685 60.2776 436.685C56.7124 436.685 53.8223 433.795 53.8223 430.23C53.8223 426.666 56.7124 423.775 60.2776 423.775C63.8427 423.775 66.7326 426.665 66.7326 430.23Z" fill="#E2EDF3"/>
</g>
</svg>
