<svg width="101" height="20" viewBox="0 0 101 20" fill="none" xmlns="http://www.w3.org/2000/svg">
<g id="g18">
<path id="path16" d="M5.1795 10L2.91885 12.2587L0.660156 10L2.91885 7.7413L5.1795 10ZM10.6602 4.51544L14.5308 8.38804L16.7895 6.12935L10.6602 0L4.53081 6.12935L6.7895 8.38804L10.6602 4.51544ZM18.4034 7.7413L16.1447 10L18.4034 12.2587L20.6602 10L18.4034 7.7413ZM10.6602 15.4846L6.7895 11.6139L4.53081 13.8707L10.6602 20L16.7895 13.8707L14.5308 11.6139L10.6602 15.4846ZM10.6602 12.2587L12.9189 10L10.6602 7.7413L8.40146 10L10.6602 12.2587ZM34.4976 12.4756V12.4443C34.4976 10.9711 33.716 10.2345 32.4441 9.7499C33.2256 9.31028 33.886 8.62055 33.886 7.38374V7.35248C33.886 5.62915 32.5066 4.51544 30.2655 4.51544H25.1775V15.4846H30.3944C32.87 15.4846 34.5015 14.4822 34.5015 12.4756H34.4976ZM31.4886 7.78624C31.4886 8.60102 30.8145 8.94685 29.7496 8.94685H27.5281V6.6315H29.9099C30.9278 6.6315 31.4925 7.0379 31.4925 7.75889L31.4886 7.78624ZM32.1002 12.1747C32.1002 12.9894 31.4573 13.3646 30.3905 13.3646H27.5281V10.9555H30.3163C31.555 10.9555 32.1041 11.4107 32.1041 12.1473L32.1002 12.1747ZM39.5679 15.4846V4.51544H37.1471V15.4846H39.5679ZM52.5398 15.4846V4.51544H50.1502V11.27L45.0115 4.51544H42.786V15.4846H45.1678V8.51114L50.4784 15.4846H52.5398ZM65.9063 15.4846L61.1975 4.43728H58.972L54.2729 15.4846H56.7328L57.7391 13.0246H62.3776L63.38 15.4846H65.9063ZM61.5199 10.8929H58.5969L60.0545 7.33685L61.5199 10.8929ZM77.4089 15.4846V4.51544H75.0193V11.27L69.8786 4.51544H67.6551V15.4846H70.0349V8.51114L75.3475 15.4846H77.4089ZM89.8649 13.7143L88.3311 12.163C87.4695 12.9445 86.7016 13.4467 85.4472 13.4467C83.5675 13.4467 82.2663 11.8835 82.2663 10V9.96874C82.2663 8.0891 83.5988 6.55334 85.4472 6.55334C86.5433 6.55334 87.4011 7.02227 88.253 7.79015L89.7829 6.01993C88.7649 5.01759 87.5281 4.32786 85.4589 4.32786C82.0904 4.32786 79.7399 6.88159 79.7399 9.99414V10.0254C79.7399 13.1751 82.1373 15.6663 85.3651 15.6663C87.4773 15.6721 88.7297 14.9199 89.8571 13.7143H89.8649ZM100.162 15.4846V13.3353H94.1986V11.0277H99.3706V8.87847H94.1986V6.66276H100.076V4.51348H91.8012V15.4826L100.162 15.4846Z" fill="white" fill-opacity="0.4"/>
</g>
</svg>
