<svg width="100" height="20" viewBox="0 0 100 20" fill="none" xmlns="http://www.w3.org/2000/svg">
<g id="g18">
<path id="path16" d="M4.51934 10L2.2587 12.2587L0 10L2.2587 7.7413L4.51934 10ZM10 4.51544L13.8707 8.38804L16.1293 6.12935L10 0L3.87065 6.12935L6.12935 8.38804L10 4.51544ZM17.7433 7.7413L15.4846 10L17.7433 12.2587L20 10L17.7433 7.7413ZM10 15.4846L6.12935 11.6139L3.87065 13.8707L10 20L16.1293 13.8707L13.8707 11.6139L10 15.4846ZM10 12.2587L12.2587 10L10 7.7413L7.7413 10L10 12.2587ZM33.8374 12.4756V12.4443C33.8374 10.9711 33.0559 10.2345 31.7839 9.7499C32.5655 9.31028 33.2259 8.62055 33.2259 7.38374V7.35248C33.2259 5.62915 31.8464 4.51544 29.6053 4.51544H24.5174V15.4846H29.7343C32.2099 15.4846 33.8413 14.4822 33.8413 12.4756H33.8374ZM30.8284 7.78624C30.8284 8.60102 30.1544 8.94685 29.0895 8.94685H26.8679V6.6315H29.2497C30.2677 6.6315 30.8324 7.0379 30.8324 7.75889L30.8284 7.78624ZM31.44 12.1747C31.44 12.9894 30.7972 13.3646 29.7304 13.3646H26.8679V10.9555H29.6561C30.8949 10.9555 31.4439 11.4107 31.4439 12.1473L31.44 12.1747ZM38.9078 15.4846V4.51544H36.4869V15.4846H38.9078ZM51.8796 15.4846V4.51544H49.49V11.27L44.3513 4.51544H42.1258V15.4846H44.5076V8.51114L49.8183 15.4846H51.8796ZM65.2462 15.4846L60.5373 4.43728H58.3118L53.6127 15.4846H56.0727L57.0789 13.0246H61.7175L62.7198 15.4846H65.2462ZM60.8597 10.8929H57.9367L59.3943 7.33685L60.8597 10.8929ZM76.7487 15.4846V4.51544H74.3591V11.27L69.2184 4.51544H66.9949V15.4846H69.3748V8.51114L74.6874 15.4846H76.7487ZM89.2048 13.7143L87.671 12.163C86.8093 12.9445 86.0414 13.4467 84.787 13.4467C82.9074 13.4467 81.6061 11.8835 81.6061 10V9.96874C81.6061 8.0891 82.9387 6.55334 84.787 6.55334C85.8832 6.55334 86.7409 7.02227 87.5928 7.79015L89.1227 6.01993C88.1047 5.01759 86.8679 4.32786 84.7988 4.32786C81.4302 4.32786 79.0797 6.88159 79.0797 9.99414V10.0254C79.0797 13.1751 81.4771 15.6663 84.705 15.6663C86.8171 15.6721 88.0696 14.9199 89.197 13.7143H89.2048ZM99.5018 15.4846V13.3353H93.5385V11.0277H98.7104V8.87847H93.5385V6.66276H99.4158V4.51348H91.1411V15.4826L99.5018 15.4846Z" fill="white" fill-opacity="0.4"/>
</g>
</svg>
