<svg width="48" height="48" viewBox="0 0 48 48" fill="none" xmlns="http://www.w3.org/2000/svg">
<g id="fi_4853930" clip-path="url(#clip0_883_3990)">
<g id="Plant Investment">
<path id="Vector" d="M47.4375 0.330272C47.2612 0.188839 47.0552 0.0890702 46.835 0.0384203C46.6147 -0.0122295 46.3859 -0.012451 46.1655 0.0377723C43.771 0.604526 41.3054 0.811297 38.85 0.651272C36.9058 0.470684 34.945 0.674559 33.0795 1.25127C28.8795 2.61327 27.5055 7.74927 27.1365 9.62427L27.093 9.65427C25.8342 10.515 24.7786 11.6402 24 12.9513C23.2234 11.6397 22.1699 10.5135 20.913 9.65127L20.8695 9.62127C20.5005 7.74327 19.122 2.60727 14.9265 1.24527C13.0587 0.669793 11.0958 0.46795 9.15 0.651272C6.69456 0.811297 4.22899 0.604526 1.8345 0.0377723C1.61475 -0.0124988 1.38649 -0.0125918 1.16669 0.0375003C0.946896 0.0875924 0.741218 0.186581 0.564947 0.327108C0.388676 0.467635 0.246346 0.646085 0.148538 0.849192C0.0507299 1.0523 -4.09043e-05 1.27484 2.47267e-08 1.50027C0.018 5.29527 1.83 12.6513 8.5635 13.3833C9.24834 13.46 9.93688 13.4991 10.626 13.5003C12.3222 13.5644 13.9984 13.1165 15.4365 12.2148L15.5625 12.1428C14.0619 10.6188 12.3583 9.309 10.5 8.25027C11.9776 8.24871 13.4364 8.58098 14.7675 9.22227C16.3179 10.0854 17.8065 11.0553 19.2225 12.1248C20.1964 12.7897 20.9995 13.6753 21.5664 14.7093C22.1333 15.7433 22.4481 16.8966 22.485 18.0753C18.6577 18.4638 15.126 20.308 12.6199 23.2265C10.1137 26.1451 8.82467 29.915 9.01919 33.757C9.21371 37.5991 10.8769 41.2195 13.665 43.87C16.4532 46.5206 20.1531 47.9986 24 47.9986C27.8469 47.9986 31.5468 46.5206 34.335 43.87C37.1231 41.2195 38.7863 37.5991 38.9808 33.757C39.1753 29.915 37.8863 26.1451 35.3801 23.2265C32.874 20.308 29.3423 18.4638 25.515 18.0753C25.5519 16.8966 25.8667 15.7433 26.4336 14.7093C27.0005 13.6753 27.8036 12.7897 28.7775 12.1248C30.1935 11.0553 31.6821 10.0854 33.2325 9.22227C34.5636 8.58098 36.0224 8.24871 37.5 8.25027C35.6412 9.31131 33.9376 10.6237 32.4375 12.1503L32.5635 12.2223C34.0024 13.1214 35.6786 13.5667 37.374 13.5003C38.0632 13.4971 38.7518 13.456 39.4365 13.3773C46.17 12.6513 47.982 5.29527 48 1.50027C47.9999 1.27557 47.9492 1.05378 47.8519 0.851268C47.7545 0.648758 47.6129 0.470709 47.4375 0.330272ZM27.66 29.4483C27.416 29.761 27.0581 29.9643 26.6645 30.0138C26.2709 30.0633 25.8738 29.9549 25.56 29.7123C25.548 29.7033 23.8035 28.4163 23.0805 29.2728C22.674 29.7528 22.7475 30.0363 22.7805 30.1428C22.9514 30.4972 23.1968 30.8106 23.4999 31.0614C23.8031 31.3123 24.1568 31.4947 24.537 31.5963C25.3705 31.8562 26.1309 32.3092 26.7564 32.9183C27.382 33.5274 27.855 34.2755 28.137 35.1018C28.288 35.7245 28.2837 36.3748 28.1244 36.9955C27.9651 37.6162 27.6558 38.1882 27.2235 38.6613C26.7726 39.2069 26.1743 39.6115 25.5 39.8268V40.5003C25.5 40.8981 25.342 41.2796 25.0607 41.5609C24.7794 41.8422 24.3978 42.0003 24 42.0003C23.6022 42.0003 23.2206 41.8422 22.9393 41.5609C22.658 41.2796 22.5 40.8981 22.5 40.5003V39.6723C21.8199 39.4315 21.1801 39.0891 20.6025 38.6568C20.2878 38.4133 20.0827 38.0548 20.0324 37.6601C19.982 37.2655 20.0905 36.867 20.334 36.5523C20.5775 36.2376 20.936 36.0325 21.3306 35.9822C21.7253 35.9318 22.1238 36.0403 22.4385 36.2838C22.4715 36.3108 24.207 37.5798 24.9225 36.7338C25.329 36.2538 25.2555 35.9703 25.2225 35.8638C25.0516 35.5093 24.8062 35.196 24.5031 34.9451C24.1999 34.6943 23.8462 34.5118 23.466 34.4103C22.6325 34.1503 21.8721 33.6974 21.2466 33.0883C20.621 32.4792 20.148 31.7311 19.866 30.9048C19.715 30.282 19.7193 29.6317 19.8786 29.011C20.0379 28.3904 20.3472 27.8183 20.7795 27.3453C21.2277 26.792 21.8246 26.3783 22.5 26.1528V25.5003C22.5 25.1024 22.658 24.7209 22.9393 24.4396C23.2206 24.1583 23.6022 24.0003 24 24.0003C24.3978 24.0003 24.7794 24.1583 25.0607 24.4396C25.342 24.7209 25.5 25.1024 25.5 25.5003V26.3133C26.1814 26.5578 26.8214 26.9054 27.3975 27.3438C27.7113 27.5881 27.9152 27.947 27.9645 28.3417C28.0137 28.7363 27.9042 29.1344 27.66 29.4483Z" fill="white"/>
</g>
</g>
<defs>
<clipPath id="clip0_883_3990">
<rect width="48" height="48" fill="white"/>
</clipPath>
</defs>
</svg>
