<svg width="48" height="48" viewBox="0 0 48 48" fill="none" xmlns="http://www.w3.org/2000/svg">
<g id="fi_1668151" clip-path="url(#clip0_883_3978)">
<path id="Vector" d="M42.0266 33.3964L47.9998 27.4235L42.0266 21.4503L42.989 20.4879C44.6541 18.8227 44.6541 16.1135 42.9893 14.4484C42.1826 13.642 41.1099 13.1977 39.9692 13.1977C38.8288 13.1977 37.7562 13.642 36.9498 14.4484L35.9874 15.4108L30.0141 9.4375L28.2516 11.2004V13.9866C31.3695 14.7296 33.6953 17.5388 33.6953 20.8808C33.6953 24.2232 31.3695 27.0324 28.2516 27.7751V36.4144H23.0807L22.0498 37.4453L30.0141 45.4092L35.9874 39.436L36.8169 40.2658C38.482 41.931 41.1912 41.931 42.8564 40.2658C44.5216 38.6007 44.5216 35.8914 42.8564 34.2263L42.0266 33.3964Z" fill="white"/>
<path id="Vector_2" d="M25.4359 33.5987V25.1513H26.6088C28.9639 25.1513 30.8796 23.2357 30.8796 20.8806C30.8796 18.5258 28.9639 16.6102 26.6088 16.6102H25.4359V8.16283H16.9885V6.80199C16.9885 4.4469 15.0728 2.53125 12.7177 2.53125C10.363 2.53125 8.44737 4.4469 8.44737 6.80199V8.16283H0V16.6102H1.17334C3.2395 16.6102 4.96728 18.0849 5.35985 20.0372C5.53014 20.2752 5.63158 20.566 5.63158 20.8806C5.63158 21.1952 5.53014 21.4859 5.35985 21.7243C4.96728 23.6762 3.2395 25.1513 1.17334 25.1513H0V33.5987H8.44737V32.2375C8.44737 29.8828 10.363 27.9671 12.7177 27.9671C15.0728 27.9671 16.9885 29.8828 16.9885 32.2375V33.5987H25.4359Z" fill="white"/>
</g>
<defs>
<clipPath id="clip0_883_3978">
<rect width="48" height="48" fill="white"/>
</clipPath>
</defs>
</svg>
