<svg width="102" height="16" viewBox="0 0 102 16" fill="none" xmlns="http://www.w3.org/2000/svg">
<g id="Group 1000006790">
<path id="_x23_0da8ffff_1_" d="M9.49281 0.0223156C11.2558 -0.0963446 13.0526 0.259632 14.6291 1.05635C16.9684 2.20905 18.8331 4.27713 19.6976 6.71814C20.0875 7.80303 20.2909 8.93878 20.2909 10.0915V14.3463C20.2909 14.5158 20.2909 14.7023 20.257 14.8718C20.1553 15.2956 19.8502 15.6855 19.4433 15.8719C19.1551 16.0075 18.8331 16.0245 18.5449 15.9736C17.9007 15.855 17.3922 15.2447 17.3922 14.5836C17.3922 13.2614 17.3922 11.9392 17.3922 10.617C17.4091 10.244 17.4091 9.83721 17.2057 9.51513C16.8836 8.90488 16.07 8.6167 15.4428 8.87097C14.9003 9.05744 14.5104 9.61684 14.4935 10.1932C14.4935 11.5324 14.4935 12.8715 14.4935 14.2107C14.4935 14.465 14.5104 14.7192 14.4257 14.9565C14.2901 15.4312 13.9002 15.8041 13.4256 15.9397C12.7983 16.1092 12.0864 15.838 11.7813 15.2617C11.5609 14.9226 11.5778 14.4989 11.5948 14.109C11.5948 12.7698 11.5948 11.4476 11.5948 10.1084C11.5778 9.43037 11.0184 8.82012 10.3573 8.73536C9.9166 8.66756 9.45891 8.82012 9.13683 9.12524C8.84866 9.39647 8.6961 9.78635 8.6961 10.1762V14.0581C8.6961 14.3802 8.73 14.7192 8.61134 15.0244C8.42487 15.5838 7.86547 15.9906 7.27217 15.9736C6.66192 16.0075 6.06862 15.5838 5.88215 15.0244C5.78045 14.7362 5.7974 14.448 5.7974 14.1429C5.7974 12.8037 5.7974 11.4645 5.7974 10.1254C5.7974 9.46427 5.2719 8.85402 4.62775 8.73536C4.03445 8.6167 3.39029 8.90487 3.08516 9.44732C2.9665 9.66769 2.8987 9.92196 2.8987 10.1762V14.5328C2.8987 14.9565 2.71223 15.3803 2.39015 15.6516C1.89856 16.0753 1.10184 16.1092 0.593301 15.7194C0.220369 15.4651 0 15.0244 0 14.5667V10.1593C0 8.49804 0.423786 6.8368 1.2205 5.36202C1.86466 4.15847 2.76309 3.09052 3.83103 2.24295C5.40751 0.920738 7.42474 0.140976 9.49281 0.0223156Z" fill="white" fill-opacity="0.4"/>
<path id="Vector" d="M49.1088 5.12467H46.9051C46.9898 3.58208 47.3119 2.19207 48.7189 1.31059C50.1259 0.446066 51.6684 0.242649 53.2788 0.37826C54.1434 0.446066 55.0079 0.632534 55.8046 1.00547C57.2116 1.64962 57.9066 2.75146 57.9066 4.29405C57.9066 7.02323 57.9066 9.75242 57.9066 12.4816C57.9066 13.4817 58.11 13.6682 59.1101 13.5665C59.2118 13.5495 59.3305 13.5326 59.4322 13.5156C59.4492 13.5665 59.4492 13.6173 59.4492 13.6513V15.3125C58.6524 15.5837 57.8388 15.6685 57.0421 15.4481C56.4488 15.2786 56.0758 14.8548 55.8724 14.2954C55.7707 14.0072 55.7029 13.7021 55.6181 13.38C55.5334 13.4817 55.4656 13.5665 55.3808 13.6513C53.6348 15.4142 51.5667 16.1601 49.1257 15.5329C47.3967 15.0921 46.2101 13.5156 46.1592 11.7188C46.1423 11.1424 46.1931 10.5661 46.3287 10.0067C46.6508 8.71838 47.5662 7.93861 48.7189 7.41311C49.5326 7.04018 50.414 6.93847 51.2955 6.81981C52.3296 6.6842 53.3466 6.56554 54.3807 6.41298C55.0757 6.31127 55.4317 5.93834 55.5334 5.24333C55.7537 3.83636 55.1265 2.90403 53.7704 2.565C52.9568 2.36158 52.1261 2.32768 51.2955 2.48024C50.075 2.70061 49.3969 3.39562 49.1596 4.59918C49.1766 4.76869 49.1427 4.9382 49.1088 5.12467ZM55.6012 7.8369C54.5841 8.37935 53.6009 8.51496 52.6008 8.66752C51.7702 8.80314 50.9226 8.9218 50.1089 9.17607C49.041 9.53205 48.5494 10.4135 48.6511 11.6001C48.7358 12.5833 49.397 13.38 50.4649 13.5495C52.1092 13.8208 53.567 13.3631 54.7197 12.1426C55.0587 11.7866 55.33 11.278 55.3978 10.8034C55.5503 9.85412 55.5334 8.88789 55.6012 7.8369ZM87.0122 10.6847C86.9614 10.9221 86.9275 11.1255 86.8766 11.3119C85.9273 14.2106 83.9949 15.4481 81.6556 15.7193C77.6042 16.1601 75.2818 13.5156 74.6885 10.7017C74.2139 8.46411 74.2817 6.24346 75.2649 4.14148C76.1972 2.15816 77.6889 0.852901 79.9096 0.463018C82.5709 -0.0116229 86.3342 1.31059 86.9614 5.4637C87.1309 6.53164 87.1648 7.63349 87.2665 8.75228H76.96C77.0448 10.2779 77.2821 11.7018 78.4009 12.8037C78.8586 13.2614 79.4519 13.4817 80.096 13.6004C82.1811 13.9733 83.9101 12.9732 84.5882 10.956C84.656 10.7356 84.7577 10.6678 84.9781 10.6847C85.6392 10.6847 86.3003 10.6847 87.0122 10.6847ZM77.0448 6.78591H84.7577C84.6729 5.88749 84.5204 5.05686 84.0966 4.27709C83.6897 3.53123 83.0964 2.98879 82.2828 2.71756C79.6214 1.80219 76.8753 3.92112 77.0448 6.78591ZM92.5554 15.2277H90.216V0.68339H92.4367V2.71756C92.6062 2.5311 92.7079 2.41244 92.8096 2.29378C94.4031 0.479972 96.4033 0.00532958 98.6748 0.564727C100.251 0.954611 101.133 2.07341 101.438 3.63294C101.557 4.2771 101.641 4.9382 101.641 5.58236C101.658 8.70143 101.658 11.8205 101.658 14.9396C101.658 15.0243 101.641 15.1091 101.641 15.2108H99.2512V14.8209C99.2512 11.9053 99.2681 8.9896 99.2342 6.07395C99.2342 5.42979 99.1325 4.76869 98.9461 4.14148C98.6409 3.1244 97.8272 2.58195 96.7593 2.5311C94.8099 2.46329 93.2673 3.49733 92.7927 5.22638C92.6232 5.85358 92.5723 6.51469 92.5723 7.17579C92.5553 9.73546 92.5554 12.2782 92.5554 14.8039V15.2277ZM61.7207 0.68339H63.9752V6.85372C64.1108 6.71811 64.1956 6.6503 64.2803 6.56554C66.128 4.68393 67.9757 2.78537 69.8235 0.903757C69.976 0.734242 70.1286 0.666437 70.3659 0.666437C71.2304 0.683389 72.1119 0.666437 73.0612 0.666437C72.9256 0.802049 72.8578 0.886804 72.773 0.971561C71.1457 2.5989 69.5353 4.24319 67.891 5.85358C67.7045 6.04005 67.7045 6.15871 67.8232 6.36213C69.6031 9.19302 71.366 12.0239 73.129 14.8548C73.1968 14.9565 73.2476 15.0582 73.3324 15.2108C73.2137 15.2277 73.129 15.2277 73.0273 15.2277C72.2136 15.2277 71.4169 15.2277 70.6032 15.2277C70.3829 15.2277 70.2811 15.143 70.1625 14.9735C68.8064 12.702 67.4502 10.4305 66.0941 8.14203C66.0263 8.04032 65.9755 7.93861 65.8907 7.81995C65.2635 8.44716 64.6533 9.04046 64.043 9.66766C63.9582 9.75242 63.9413 9.90498 63.9413 10.0236C63.9413 11.6171 63.9413 13.2105 63.9413 14.8039V15.2108C63.5006 15.2108 63.0598 15.2108 62.636 15.2108C62.3309 15.2108 61.9071 15.2955 61.7376 15.126C61.585 14.9904 61.6698 14.5497 61.6698 14.2446V1.07327C61.7207 0.988514 61.7207 0.852904 61.7207 0.68339ZM35.7002 0.666437C33.8694 2.48024 32.0895 4.26015 30.2927 6.04005C32.2251 9.12521 34.1067 12.1426 36.0223 15.2277C35.8697 15.2277 35.768 15.2447 35.6663 15.2447C34.8865 15.2447 34.0898 15.2447 33.31 15.2447C33.0897 15.2447 32.954 15.1599 32.8354 14.9735C31.4793 12.702 30.1231 10.4305 28.767 8.14203C28.7162 8.04032 28.6484 7.95556 28.5636 7.81995C28.2246 8.17593 27.9195 8.56582 27.5465 8.83704C26.7837 9.41339 26.5633 10.1253 26.6142 11.0746C26.699 12.3121 26.6311 13.5665 26.6311 14.8039V15.2108H24.3936V0.68339H26.6311V6.75201C26.682 6.78591 26.7329 6.81981 26.7668 6.85372C26.8346 6.75201 26.8685 6.63335 26.9363 6.54859C28.767 4.66698 30.6147 2.80232 32.4455 0.903757C32.615 0.734242 32.7676 0.649486 33.0218 0.666437C33.7847 0.683389 34.5475 0.666437 35.3103 0.666437C35.429 0.666437 35.5307 0.666437 35.7002 0.666437ZM40.1754 3.09049C41.3111 1.42925 42.5147 0.0392356 44.7523 0.44607V2.93793C44.159 2.97183 43.5657 2.95489 43.0063 3.07355C41.6332 3.36172 40.5652 4.61612 40.3449 6.14175C40.311 6.44688 40.2771 6.75201 40.2771 7.05714C40.2771 9.65071 40.2771 12.2443 40.2771 14.8379V15.2447H37.9717V0.71729H40.1754C40.1754 1.4801 40.1754 2.24292 40.1754 3.09049Z" fill="white" fill-opacity="0.4"/>
</g>
</svg>
