<svg width="122" height="122" viewBox="0 0 122 122" fill="none" xmlns="http://www.w3.org/2000/svg">
<g id="Frame" clip-path="url(#clip0_309_7680)">
<g id="Group 1">
<path id="Vector" d="M17.3682 106.362H32.2306V119.716H2.05078V-1.0752H32.2306V12.2794H17.3682C16.3066 12.2794 15.5483 13.0297 15.5483 14.08V104.562C15.5483 105.612 16.3066 106.362 17.3682 106.362Z" fill="black"/>
<path id="Vector_2" d="M100.376 12.2794H85.5137V-1.0752H115.694V119.717H85.5137V106.362H100.376C101.438 106.362 102.196 105.612 102.196 104.561V14.08C102.196 13.0297 101.438 12.2794 100.376 12.2794Z" fill="black"/>
<path id="Vector_3" d="M74.0453 59.0936V44.3887H87.5428V74.249H28.625V44.3887H42.1225V59.0936C42.1225 60.144 42.8808 60.8944 43.9424 60.8944H72.2252C73.2868 60.8944 74.0453 60.144 74.0453 59.0936Z" fill="black"/>
</g>
</g>
<defs>
<clipPath id="clip0_309_7680">
<rect width="122" height="122" fill="white"/>
</clipPath>
</defs>
</svg>
