<svg width="46" height="46" viewBox="0 0 46 46" fill="none" xmlns="http://www.w3.org/2000/svg">
<g id="Logo">
<g id="Group 1">
<g id="Vector">
<path d="M7.68938 40.9141H13.2894V45.9998H1.91797V0H13.2894V5.0857H7.68938C7.28939 5.0857 7.00367 5.37142 7.00367 5.77141V40.2285C7.00367 40.6285 7.28939 40.9141 7.68938 40.9141Z" fill="white"/>
<path d="M7.68938 40.9141H13.2894V45.9998H1.91797V0H13.2894V5.0857H7.68938C7.28939 5.0857 7.00367 5.37142 7.00367 5.77141V40.2285C7.00367 40.6285 7.28939 40.9141 7.68938 40.9141Z" fill="white"/>
</g>
<g id="Vector_2">
<path d="M38.9671 5.08569H33.3672V0H44.7386V45.9999H33.3672V40.9142H38.9671C39.3671 40.9142 39.6529 40.6284 39.6529 40.2284V5.77141C39.6529 5.37141 39.3671 5.08569 38.9671 5.08569Z" fill="white"/>
<path d="M38.9671 5.08569H33.3672V0H44.7386V45.9999H33.3672V40.9142H38.9671C39.3671 40.9142 39.6529 40.6284 39.6529 40.2284V5.77141C39.6529 5.37141 39.3671 5.08569 38.9671 5.08569Z" fill="white"/>
</g>
<g id="Vector_3">
<path d="M29.0435 22.9144V17.3145H34.1292V28.6858H11.9297V17.3145H17.0154V22.9144C17.0154 23.3144 17.3011 23.6002 17.7011 23.6002H28.3577C28.7577 23.6002 29.0435 23.3144 29.0435 22.9144Z" fill="white"/>
<path d="M29.0435 22.9144V17.3145H34.1292V28.6858H11.9297V17.3145H17.0154V22.9144C17.0154 23.3144 17.3011 23.6002 17.7011 23.6002H28.3577C28.7577 23.6002 29.0435 23.3144 29.0435 22.9144Z" fill="white"/>
</g>
</g>
</g>
</svg>
