<svg width="32" height="32" viewBox="0 0 32 32" fill="none" xmlns="http://www.w3.org/2000/svg">
<g id="fi_5968830" clip-path="url(#clip0_309_7615)">
<path id="Vector" d="M17.0706 15.4541L24.2718 25.7543H21.3164L15.4401 17.3493V17.3488L14.5774 16.115L7.71289 6.2959H10.6683L16.2079 14.2203L17.0706 15.4541Z" fill="white"/>
<path id="Vector_2" d="M32.0001 0H0C0 0 6.10352e-05 1.5481 6.10352e-05 3.45767V32C6.10352e-05 32 1.54816 32 3.45773 32H28.5424C30.452 32 32.0001 32 32.0001 32V3.45767C32.0001 1.5481 32.0001 0 32.0001 0ZM20.4107 27.1366L14.4642 18.4823L7.0192 27.1366H5.09502L13.6098 17.2393L5.09502 4.84694H11.5894L17.2203 13.042L24.2702 4.84694H26.1944L18.075 14.2852L26.9051 27.1366H20.4107Z" fill="black"/>
</g>
<defs>
<clipPath id="clip0_309_7615">
<rect width="32" height="32" fill="white"/>
</clipPath>
</defs>
</svg>
