<svg xmlns="http://www.w3.org/2000/svg" width="1365" height="569.926" viewBox="0 0 1365 569.926">
  <path id="Path_107369" data-name="Path 107369" d="M569.092,563.5a1168.435,1168.435,0,0,1-117.764-18.462q-33.121,1.788-65.551,1.783C242.141,546.824,109.7,520.809,0,472.39v-1.1q7.578,3.351,15.277,6.549c21.7,9.012,44.531,17.275,67.864,24.557s47.708,13.756,72.446,19.237c24.8,5.5,50.54,10.122,76.507,13.753,26.094,3.648,53.026,6.375,80.047,8.1,27.216,1.742,55.164,2.513,83.066,2.292,17.269-.137,34.771-.655,52.325-1.548A1112.45,1112.45,0,0,1,253.79,484.206C157.5,467.02,70.936,432.968,0,382.74v-1.234c11.829,8.4,24.168,16.4,36.863,23.9a573.817,573.817,0,0,0,59.391,30.487,640.536,640.536,0,0,0,64.321,24.35c22.072,7.046,45.186,13.152,68.7,18.148q9.975,2.119,20.161,4C156.159,443.26,72.034,392.415,0,332.719v-1.3q3.738,3.1,7.513,6.17c20.886,16.965,42.994,33.357,65.709,48.721,22.826,15.439,46.8,30.2,71.252,43.873C169.1,443.957,194.8,456.949,220.85,468.8q16.382,7.454,33.216,14.43c15.676,2.794,31.655,5.152,47.744,7.042,24.671,2.9,50.178,4.763,75.813,5.543,25.7.783,52.124.493,78.541-.859,26.546-1.359,53.7-3.824,80.719-7.327,27.21-3.527,54.914-8.191,82.346-13.86,27.688-5.722,55.755-12.605,83.421-20.458,27.98-7.942,56.223-17.068,83.945-27.122,28.085-10.186,56.319-21.575,83.918-33.85,28-12.455,56.043-26.13,83.339-40.643s54.312-30.113,80.3-46.364c25.609-16.016,50.839-33.054,74.99-50.642,23.837-17.36,47.2-35.672,69.426-54.427,21.982-18.545,43.383-37.965,63.609-57.719,20.039-19.571,39.4-39.932,57.538-60.517,18.01-20.438,35.24-41.575,51.212-62.823Q1358.086,9.676,1365,0V1.723c-96.629,134.789-237.019,258.52-410.678,350.856C770.971,450.068,579.3,497.243,406.148,497.247a870.88,870.88,0,0,1-147.753-12.234c14.372,5.883,28.921,11.477,43.536,16.738,27.818,10.013,56.539,19.055,85.364,26.874,21.052,5.71,42.531,10.869,64.121,15.4q14.678-.792,29.355-1.931c28.937-2.245,58.388-5.549,87.539-9.82,29.533-4.327,59.475-9.751,88.994-16.121,29.953-6.465,60.209-14.063,89.927-22.585s59.4-18.111,88.231-28.5c28.409-10.239,56.676-21.506,84.014-33.488,26.984-11.826,53.712-24.631,79.441-38.06,25.441-13.28,50.511-27.483,74.514-42.219,23.779-14.6,47.071-30.063,69.229-45.962,22-15.786,43.393-32.37,63.589-49.292,20.1-16.839,39.476-34.4,57.595-52.205,18.074-17.757,35.315-36.163,51.244-54.7s30.912-37.646,44.538-56.787q2.716-3.815,5.375-7.654v1.754c-122.49,176.033-343.26,329.447-617.494,408.082-99.2,28.445-197.68,44.883-292.295,50.286q10.647,2.2,21.312,4.192C506.968,554.7,538.148,559.24,569.2,562.5s62.49,5.306,93.452,6.072c30.515.754,61.306.286,91.517-1.391,29.82-1.655,59.793-4.528,89.086-8.538,28.964-3.965,57.952-9.138,86.159-15.372,27.945-6.178,55.78-13.544,82.736-21.894,26.761-8.29,53.279-17.744,78.817-28.1,25.412-10.3,50.445-21.742,74.4-33.994,23.9-12.22,47.278-25.535,69.493-39.573s43.774-29.122,64.086-44.837c20.36-15.753,39.936-32.5,58.186-49.789q3.964-3.754,7.869-7.566v1.38C1205.325,474.286,961.753,569.908,691.13,569.926h-.1A1165.745,1165.745,0,0,1,569.092,563.5Z" fill="#C0CFD3"/>
</svg>
