<svg width="180" height="37" viewBox="0 0 180 37" fill="none" xmlns="http://www.w3.org/2000/svg">
<g clip-path="url(#clip0_577_1711)">
<path d="M6.01676 31.6994H10.3994V35.6795H1.5V-0.320312H10.3994V3.6598H6.01676C5.70372 3.6598 5.48012 3.88341 5.48012 4.19644V31.1629C5.48012 31.4759 5.70372 31.6994 6.01676 31.6994Z" fill="black"/>
<path d="M30.4939 3.65979H26.1113V-0.320312H35.0107V35.6796H26.1113V31.6995H30.4939C30.8069 31.6995 31.0306 31.4758 31.0306 31.1628V4.19645C31.0306 3.8834 30.8069 3.65979 30.4939 3.65979Z" fill="black"/>
<path d="M22.7293 17.612V13.2295H26.7094V22.1288H9.33594V13.2295H13.3161V17.612C13.3161 17.9251 13.5397 18.1487 13.8527 18.1487H22.1926C22.5057 18.1487 22.7293 17.9251 22.7293 17.612Z" fill="black"/>
</g>
<path d="M54.9987 19.1226V28.2519H52.8594V8.08008H54.9987V16.2107C54.9987 16.3233 55.0364 16.4217 55.112 16.5061C55.197 16.5811 55.2962 16.6187 55.4095 16.6187H61.204C61.3173 16.6187 61.4118 16.5811 61.4873 16.5061C61.5723 16.4217 61.6148 16.3233 61.6148 16.2107V8.08008H63.7683V28.2519H61.6148V19.1226C61.6148 19.01 61.5723 18.9162 61.4873 18.8412C61.4118 18.7568 61.3173 18.7146 61.204 18.7146H55.4095C55.2962 18.7146 55.197 18.7568 55.112 18.8412C55.0364 18.9162 54.9987 19.01 54.9987 19.1226Z" fill="black"/>
<path d="M71.5746 8.08008L74.6489 16.8719C74.7339 17.1063 74.8236 17.1063 74.9181 16.8719L77.9924 8.08008H80.2875L76.0798 19.84C75.9759 20.1119 75.924 20.3698 75.924 20.6136V28.2519H73.7847V20.6136C73.7847 20.3511 73.7374 20.0932 73.643 19.84L69.4636 8.08008H71.5746Z" fill="black"/>
<path d="M88.0938 20.9934V28.2801H85.9545V8.08008H94.0441L96.8634 10.8231V17.8565L94.0441 20.5855H88.5046C88.3913 20.5855 88.2921 20.6277 88.2071 20.7121C88.1316 20.7871 88.0938 20.8809 88.0938 20.9934ZM88.0938 10.598V18.0816C88.0938 18.1941 88.1316 18.2926 88.2071 18.377C88.2921 18.452 88.3913 18.4895 88.5046 18.4895H92.7974C93.0618 18.4895 93.2932 18.3911 93.4916 18.1941L94.4266 17.2517C94.6155 17.0641 94.71 16.8343 94.71 16.5624V12.1173C94.71 11.8453 94.6155 11.6155 94.4266 11.428L93.4916 10.4714C93.3027 10.2839 93.0713 10.1901 92.7974 10.1901H88.5046C88.3913 10.1901 88.2921 10.2323 88.2071 10.3167C88.1316 10.3917 88.0938 10.4855 88.0938 10.598Z" fill="black"/>
<path d="M105.166 26.1419H113.227V28.2519H102.672V8.08008H113.227V10.1901H105.166C105.052 10.1901 104.953 10.2323 104.868 10.3167C104.792 10.3917 104.755 10.4855 104.755 10.598V16.1826C104.755 16.2951 104.792 16.3936 104.868 16.478C104.953 16.553 105.052 16.5905 105.166 16.5905H112.278V18.6865H105.166C105.052 18.6865 104.953 18.7287 104.868 18.8131C104.792 18.8881 104.755 18.9819 104.755 19.0944V25.748C104.755 25.8606 104.792 25.9544 104.868 26.0294C104.953 26.1044 105.052 26.1419 105.166 26.1419Z" fill="black"/>
<path d="M121.132 20.9934V28.2801H118.993V8.08008H127.054L129.874 10.8231V17.8565L127.55 20.1213C127.352 20.3182 127.3 20.5433 127.394 20.7965L130.015 28.2801H127.748L125.283 20.9653C125.189 20.7121 125.005 20.5855 124.731 20.5855H121.543C121.43 20.5855 121.331 20.6277 121.246 20.7121C121.17 20.7871 121.132 20.8809 121.132 20.9934ZM121.132 10.598V18.0816C121.132 18.1941 121.17 18.2926 121.246 18.377C121.331 18.452 121.43 18.4895 121.543 18.4895H125.807C126.072 18.4895 126.303 18.3911 126.502 18.1941L127.437 17.2517C127.626 17.0641 127.72 16.8343 127.72 16.5624V12.1454C127.72 11.8734 127.626 11.6437 127.437 11.4561L126.502 10.4714C126.313 10.2839 126.081 10.1901 125.807 10.1901H121.543C121.43 10.1901 121.331 10.2323 121.246 10.3167C121.17 10.3917 121.132 10.4855 121.132 10.598Z" fill="black"/>
<path d="M145.897 10.2182H142.525C142.412 10.2182 142.313 10.2604 142.228 10.3448C142.152 10.4199 142.114 10.5136 142.114 10.6262V25.7199C142.114 25.8324 142.152 25.9262 142.228 26.0012C142.313 26.0763 142.412 26.1138 142.525 26.1138H145.897V28.2519H136.235V26.1138H139.592C139.706 26.1138 139.8 26.0763 139.876 26.0012C139.961 25.9262 140.003 25.8324 140.003 25.7199V10.6262C140.003 10.5136 139.961 10.4199 139.876 10.3448C139.8 10.2604 139.706 10.2182 139.592 10.2182H136.235V8.08008H145.897V10.2182Z" fill="black"/>
<path d="M154.95 8.08008H160.234L163.054 10.8512V25.5089L160.234 28.2519H154.95L152.145 25.5089V10.8512L154.95 8.08008ZM154.582 24.904L155.502 25.8324C155.691 26.02 155.923 26.1138 156.197 26.1138H158.988C159.262 26.1138 159.493 26.02 159.682 25.8324L160.617 24.904C160.806 24.7165 160.9 24.4867 160.9 24.2148V12.1454C160.9 11.8734 160.806 11.6437 160.617 11.4561L159.682 10.4996C159.493 10.312 159.262 10.2182 158.988 10.2182H156.197C155.923 10.2182 155.691 10.312 155.502 10.4996L154.582 11.4561C154.383 11.6531 154.284 11.8828 154.284 12.1454V24.2148C154.284 24.4773 154.383 24.7071 154.582 24.904Z" fill="black"/>
<path d="M170.548 12.4127L170.69 16.4921V28.2519H168.536V8.08008H170.86L177.618 23.9616C177.646 24.0366 177.67 24.0835 177.689 24.1022C177.717 24.121 177.736 24.1163 177.745 24.0882C177.764 24.06 177.774 24.0084 177.774 23.9334L177.618 19.8118V8.08008H179.771V28.2519H177.448L170.69 12.3845C170.662 12.3095 170.633 12.2626 170.605 12.2439C170.586 12.2251 170.572 12.2298 170.562 12.2579C170.553 12.2861 170.548 12.3376 170.548 12.4127Z" fill="black"/>
<defs>
<clipPath id="clip0_577_1711">
<rect width="35.975" height="36.36" fill="white" transform="translate(0.895508)"/>
</clipPath>
</defs>
</svg>
